<svg width="296" height="73" viewBox="0 0 296 73" fill="none" xmlns="http://www.w3.org/2000/svg">
<path d="M283.531 56.9834C283.531 56.9834 280.449 50.5356 279.449 49.7573C278.448 48.9791 264.838 50.7748 264.835 48.6795C264.832 46.5842 277.329 47.798 277.329 47.798C277.329 47.798 259.771 43.8088 260.944 41.6422C262.116 39.4756 277.233 46.6027 277.233 46.6027C277.233 46.6027 261.229 34.3702 261.227 32.3431C261.225 30.3161 275.796 42.8115 275.796 42.8115C275.796 42.8115 261.191 23.7143 263.12 21.6503C265.05 19.5863 277.756 43.4316 277.756 43.4316C277.756 43.4316 271.445 26.9099 273.141 25.3535C274.838 23.797 279.394 46.2181 279.394 46.2181C279.394 46.2181 280.167 33.6003 282.281 32.5839C284.394 31.5676 280.335 47.4898 280.335 47.4898C280.335 47.4898 284.445 38.0077 285.982 38.7035C287.519 39.3994 280.64 49.9954 280.64 49.9954L284.289 56.5468L283.531 56.9834Z" fill="#588B8B"/>
<path d="M5.72343 10.911C5.72343 10.911 9.39989 30.0523 16.0436 29.0599C22.6874 28.0675 12.0496 16.3404 12.0496 16.3404C12.0496 16.3404 25.76 29.9905 30.7459 26.1967C35.7317 22.4029 12.5569 13.846 12.5569 13.846C12.5569 13.846 27.5956 16.3929 28.1788 12.3358C28.762 8.27883 5.72343 10.911 5.72343 10.911Z" fill="#588B8B"/>
<path d="M13.4483 15.5624C10.9044 14.9713 8.69233 13.866 6.82433 12.2526" stroke="#2B6666" stroke-width="0.73" stroke-linecap="round" stroke-linejoin="round"/>
<path d="M26.7932 56.9682C26.7932 56.9682 61.1958 60.4624 62.4038 49.2117C63.6118 37.9611 38.8608 49.3858 38.8608 49.3858C38.8608 49.3858 68.2474 33.923 63.9494 23.9575C59.6514 13.9921 34.8131 47.3371 34.8131 47.3371C34.8131 47.3371 45.7341 24.1808 39.0794 21.2696C32.4248 18.3583 26.7932 56.9682 26.7932 56.9682Z" fill="#588B8B"/>
<path d="M29.1897 53.4899C32.6074 52.588 35.5808 50.9973 38.0935 48.7267" stroke="#2B6666" stroke-width="0.73" stroke-linecap="round" stroke-linejoin="round"/>
<rect x="3.98178" y="10.0001" width="284" height="48" rx="7" stroke="#588B8B" stroke-width="2"/>
<path d="M85.9738 44.4001C85.3124 44.8695 84.4378 45.3068 83.3498 45.7121C82.2618 46.1175 80.9391 46.3201 79.3818 46.3201C76.9284 46.3201 75.0404 45.5201 73.7178 43.9201C72.3951 42.3201 71.7338 40.1975 71.7338 37.5521V32.6561C71.7338 29.8615 72.3951 27.7068 73.7178 26.1921C75.0618 24.6775 76.9604 23.9201 79.4138 23.9201C80.3951 23.9201 81.4191 24.0268 82.4858 24.2401C83.5738 24.4535 84.5978 24.7841 85.5578 25.2321L84.8538 26.9921C83.9364 26.5868 83.0191 26.2881 82.1018 26.0961C81.1844 25.9041 80.2884 25.8081 79.4138 25.8081C75.7444 25.8081 73.9098 28.0908 73.9098 32.6561V37.5521C73.9098 39.7068 74.3791 41.4028 75.3178 42.6401C76.2778 43.8775 77.6858 44.4961 79.5418 44.4961C81.2911 44.4961 82.7844 44.1121 84.0218 43.3441V36.8481H79.6378V34.9601H85.9738V44.4001ZM102.341 45.0721C101.466 45.5201 100.549 45.8401 99.5888 46.0321C98.6501 46.2241 97.7968 46.3201 97.0288 46.3201C94.8528 46.3201 93.2314 45.6908 92.1648 44.4321C91.1194 43.1735 90.5968 41.4135 90.5968 39.1521V37.2321C90.5968 35.0775 91.1301 33.3495 92.1968 32.0481C93.2634 30.7468 94.7994 30.0961 96.8048 30.0961C98.3834 30.0961 99.7061 30.5655 100.773 31.5041C101.861 32.4428 102.405 33.8615 102.405 35.7601C102.405 36.6348 102.277 37.6375 102.021 38.7681H92.5488V39.1521C92.5488 40.9015 92.9008 42.2455 93.6048 43.1841C94.3088 44.1015 95.4501 44.5601 97.0288 44.5601C97.6688 44.5601 98.4048 44.4748 99.2368 44.3041C100.09 44.1335 100.911 43.8668 101.701 43.5041L102.341 45.0721ZM96.8048 31.8561C95.3754 31.8561 94.3088 32.3255 93.6048 33.2641C92.9008 34.1815 92.5488 35.4508 92.5488 37.0721H100.389C100.431 36.7948 100.463 36.5388 100.485 36.3041C100.506 36.0481 100.517 35.8135 100.517 35.6001C100.517 34.2775 100.143 33.3281 99.3968 32.7521C98.6714 32.1548 97.8074 31.8561 96.8048 31.8561ZM115.146 45.3921C113.973 46.0108 112.789 46.3201 111.594 46.3201C110.527 46.3201 109.695 46.1068 109.098 45.6801C108.501 45.2321 108.085 44.6455 107.85 43.9201C107.615 43.1948 107.498 42.4268 107.498 41.6161V32.1121H104.65V30.4161H107.498V25.8721H109.418V30.4161H114.698V32.1121H109.418V41.4561C109.418 42.6508 109.599 43.4828 109.962 43.9521C110.346 44.4001 110.965 44.6241 111.818 44.6241C112.629 44.6241 113.514 44.3681 114.474 43.8561L115.146 45.3921ZM131.23 44.4961C132.659 44.4961 133.768 44.1655 134.558 43.5041C135.347 42.8215 135.742 41.8401 135.742 40.5601C135.742 39.4935 135.454 38.5761 134.878 37.8081C134.323 37.0188 133.416 36.4535 132.158 36.1121L129.598 35.4081C127.912 34.9388 126.696 34.2135 125.95 33.2321C125.203 32.2508 124.83 31.0668 124.83 29.6801C124.83 28.6561 125.032 27.7068 125.438 26.8321C125.843 25.9575 126.504 25.2535 127.422 24.7201C128.36 24.1868 129.63 23.9201 131.23 23.9201C132.147 23.9201 133.118 24.0375 134.142 24.2721C135.187 24.4855 136.222 24.8375 137.246 25.3281L136.542 27.1201C135.518 26.6295 134.568 26.2775 133.694 26.0641C132.819 25.8508 131.998 25.7441 131.23 25.7441C129.864 25.7441 128.808 26.0428 128.062 26.6401C127.315 27.2375 126.942 28.1975 126.942 29.5201C126.942 30.4375 127.187 31.2375 127.678 31.9201C128.168 32.5815 129.064 33.0935 130.366 33.4561L132.926 34.1601C134.568 34.6081 135.795 35.3548 136.606 36.4001C137.438 37.4455 137.854 38.7468 137.854 40.3041C137.854 42.0748 137.331 43.5255 136.286 44.6561C135.262 45.7655 133.576 46.3201 131.23 46.3201C130.227 46.3201 129.16 46.2028 128.03 45.9681C126.899 45.7335 125.768 45.3601 124.638 44.8481L125.31 43.0881C126.398 43.6001 127.411 43.9628 128.35 44.1761C129.288 44.3895 130.248 44.4961 131.23 44.4961ZM150.302 45.3921C149.129 46.0108 147.945 46.3201 146.75 46.3201C145.684 46.3201 144.852 46.1068 144.254 45.6801C143.657 45.2321 143.241 44.6455 143.006 43.9201C142.772 43.1948 142.654 42.4268 142.654 41.6161V32.1121H139.806V30.4161H142.654V25.8721H144.574V30.4161H149.854V32.1121H144.574V41.4561C144.574 42.6508 144.756 43.4828 145.118 43.9521C145.502 44.4001 146.121 44.6241 146.974 44.6241C147.785 44.6241 148.67 44.3681 149.63 43.8561L150.302 45.3921ZM165.251 46.1601C164.376 46.1601 163.651 45.9468 163.075 45.5201C162.499 45.0721 162.157 44.4855 162.051 43.7601C160.899 44.7841 159.885 45.4668 159.011 45.8081C158.136 46.1495 157.315 46.3201 156.547 46.3201C155.181 46.3201 154.168 45.8828 153.507 45.0081C152.867 44.1121 152.547 43.0455 152.547 41.8081C152.547 40.9761 152.696 40.2295 152.995 39.5681C153.315 38.9068 153.837 38.3841 154.563 38.0001C155.288 37.5948 156.28 37.3921 157.539 37.3921C158.115 37.3921 158.787 37.4348 159.555 37.5201C160.323 37.5841 161.069 37.6801 161.795 37.8081V35.5041C161.795 34.1175 161.528 33.1681 160.995 32.6561C160.461 32.1228 159.629 31.8561 158.499 31.8561C157.731 31.8561 156.973 31.9628 156.227 32.1761C155.48 32.3681 154.701 32.6561 153.891 33.0401L153.219 31.4721C154.093 31.0241 154.957 30.6828 155.811 30.4481C156.685 30.2135 157.581 30.0961 158.499 30.0961C159.928 30.0961 161.005 30.3308 161.731 30.8001C162.477 31.2481 162.989 31.8561 163.267 32.6241C163.544 33.3921 163.683 34.2455 163.683 35.1841V42.4161C163.683 43.0135 163.779 43.4935 163.971 43.8561C164.184 44.2188 164.589 44.4001 165.187 44.4001H165.571V46.1601H165.251ZM154.531 41.8081C154.531 42.6615 154.723 43.3441 155.107 43.8561C155.512 44.3681 156.088 44.6241 156.835 44.6241C157.432 44.6241 158.125 44.4321 158.915 44.0481C159.725 43.6641 160.685 42.9708 161.795 41.9681V39.5041C161.048 39.3761 160.28 39.2801 159.491 39.2161C158.723 39.1308 158.083 39.0881 157.571 39.0881C156.504 39.0881 155.725 39.3121 155.235 39.7601C154.765 40.1868 154.531 40.8695 154.531 41.8081ZM177.391 32.0161C176.495 32.0161 175.599 32.1868 174.703 32.5281C173.807 32.8695 172.761 33.6268 171.567 34.8001V46.0001H169.647V30.4161H171.471V33.0081C172.559 31.8775 173.572 31.1095 174.511 30.7041C175.449 30.2988 176.409 30.0961 177.391 30.0961V32.0161ZM188.927 45.3921C187.754 46.0108 186.57 46.3201 185.375 46.3201C184.309 46.3201 183.477 46.1068 182.879 45.6801C182.282 45.2321 181.866 44.6455 181.631 43.9201C181.397 43.1948 181.279 42.4268 181.279 41.6161V32.1121H178.431V30.4161H181.279V25.8721H183.199V30.4161H188.479V32.1121H183.199V41.4561C183.199 42.6508 183.381 43.4828 183.743 43.9521C184.127 44.4001 184.746 44.6241 185.599 44.6241C186.41 44.6241 187.295 44.3681 188.255 43.8561L188.927 45.3921ZM203.716 45.0721C202.841 45.5201 201.924 45.8401 200.964 46.0321C200.025 46.2241 199.172 46.3201 198.404 46.3201C196.228 46.3201 194.606 45.6908 193.54 44.4321C192.494 43.1735 191.972 41.4135 191.972 39.1521V37.2321C191.972 35.0775 192.505 33.3495 193.572 32.0481C194.638 30.7468 196.174 30.0961 198.18 30.0961C199.758 30.0961 201.081 30.5655 202.148 31.5041C203.236 32.4428 203.78 33.8615 203.78 35.7601C203.78 36.6348 203.652 37.6375 203.396 38.7681H193.924V39.1521C193.924 40.9015 194.276 42.2455 194.98 43.1841C195.684 44.1015 196.825 44.5601 198.404 44.5601C199.044 44.5601 199.78 44.4748 200.612 44.3041C201.465 44.1335 202.286 43.8668 203.076 43.5041L203.716 45.0721ZM198.18 31.8561C196.75 31.8561 195.684 32.3255 194.98 33.2641C194.276 34.1815 193.924 35.4508 193.924 37.0721H201.764C201.806 36.7948 201.838 36.5388 201.86 36.3041C201.881 36.0481 201.892 35.8135 201.892 35.6001C201.892 34.2775 201.518 33.3281 200.772 32.7521C200.046 32.1548 199.182 31.8561 198.18 31.8561ZM218.281 46.0001V43.7921C217.321 44.6668 216.404 45.3068 215.529 45.7121C214.654 46.1175 213.758 46.3201 212.841 46.3201C211.22 46.3201 209.972 45.6908 209.097 44.4321C208.222 43.1735 207.785 41.4135 207.785 39.1521V37.2321C207.785 35.0561 208.329 33.3281 209.417 32.0481C210.505 30.7468 212.094 30.0961 214.185 30.0961C214.868 30.0961 215.54 30.1708 216.201 30.3201C216.862 30.4481 217.524 30.6401 218.185 30.8961V22.3201H220.105V46.0001H218.281ZM209.801 39.1521C209.801 40.9868 210.078 42.3415 210.633 43.2161C211.188 44.0695 212.052 44.4961 213.225 44.4961C213.908 44.4961 214.612 44.3255 215.337 43.9841C216.084 43.6428 217.033 42.9495 218.185 41.9041V32.7521C216.862 32.1548 215.561 31.8561 214.281 31.8561C212.681 31.8561 211.529 32.3361 210.825 33.2961C210.142 34.2561 209.801 35.5681 209.801 37.2321V39.1521Z" fill="#588B8B"/>
</svg>
