<svg width="18" height="18" viewBox="0 0 18 18" fill="none" xmlns="http://www.w3.org/2000/svg">
<path d="M3.51936 10.9853C3.51936 11.4403 3.57809 11.8797 3.69556 12.3037C3.81302 12.7276 3.97646 13.1231 4.18586 13.4902C4.39526 13.8573 4.65062 14.1907 4.95195 14.4906C5.25328 14.7905 5.58525 15.049 5.94787 15.2661C6.31049 15.4832 6.70119 15.6513 7.11999 15.7702C7.53879 15.8891 7.97291 15.9485 8.42235 15.9485C8.75943 15.9485 9.09396 15.9149 9.42593 15.8477C9.7579 15.7805 10.0771 15.6745 10.3835 15.5298V16.5922C9.75535 16.8249 9.10162 16.9412 8.42235 16.9412C7.88098 16.9412 7.36003 16.8714 6.85952 16.7318C6.35901 16.5922 5.89169 16.3906 5.45757 16.1269C5.02345 15.8632 4.62508 15.553 4.26247 15.1963C3.89985 14.8396 3.59341 14.4389 3.34315 13.9943C3.0929 13.5496 2.89627 13.074 2.75326 12.5673C2.61026 12.0607 2.53876 11.5333 2.53876 10.9853C2.53876 10.551 2.58472 10.1245 2.67665 9.70572C2.76859 9.28695 2.90137 8.88627 3.07502 8.50369C3.24867 8.12111 3.46318 7.75921 3.71854 7.41798C3.9739 7.07676 4.26247 6.76139 4.58422 6.47187C4.61487 6.66316 4.66083 6.86479 4.72212 7.07676C4.78341 7.28873 4.85746 7.49812 4.94429 7.70492C5.03111 7.91172 5.12815 8.11077 5.2354 8.30206C5.34266 8.49335 5.46012 8.66138 5.58781 8.80614C5.70017 8.93539 5.83296 9.00001 5.98617 9.00001C6.12407 9.00001 6.23899 8.9509 6.33092 8.85267C6.42285 8.75444 6.47137 8.63553 6.47647 8.49594C6.47647 8.43906 6.46881 8.38736 6.45349 8.34083C6.43817 8.2943 6.41263 8.24777 6.37688 8.20124C6.09087 7.7773 5.87126 7.35594 5.71804 6.93717C5.56482 6.5184 5.48566 6.04792 5.48055 5.52575C5.48055 4.91052 5.59547 4.33147 5.82529 3.78862C6.05512 3.24576 6.37177 2.7727 6.77525 2.36944C7.17873 1.96618 7.64604 1.64822 8.1772 1.41557C8.70836 1.18292 9.28037 1.06401 9.89325 1.05884H10.3835V1.55516C10.3835 2.47026 10.5521 3.32331 10.8892 4.11433C11.2262 4.90534 11.7114 5.62398 12.3447 6.27023C12.978 6.91649 13.4632 7.63512 13.8003 8.42614C14.1374 9.21716 14.3059 10.0702 14.3059 10.9853H13.3253C13.3253 10.1995 13.1823 9.47307 12.8963 8.80614C12.6103 8.1392 12.1966 7.52914 11.6553 6.97594C10.9913 6.2935 10.4704 5.54901 10.0924 4.74249C9.71449 3.93596 9.48977 3.0493 9.41827 2.08251C8.99437 2.13938 8.60366 2.26863 8.24615 2.47026C7.88864 2.67189 7.57454 2.92781 7.30385 3.23801C7.03317 3.54821 6.82632 3.89719 6.68332 4.28494C6.54031 4.67269 6.46626 5.0863 6.46115 5.52575C6.46115 5.93418 6.51989 6.29867 6.63735 6.61921C6.75482 6.93975 6.92847 7.26547 7.1583 7.59635C7.25533 7.74111 7.32939 7.8807 7.38046 8.01512C7.43154 8.14954 7.45963 8.30981 7.46473 8.49594C7.46473 8.70274 7.42643 8.89661 7.34982 9.07756C7.27321 9.25852 7.16596 9.4162 7.02806 9.55062C6.89016 9.68504 6.73439 9.79361 6.56074 9.87634C6.3871 9.95906 6.19557 9.99783 5.98617 9.99266C5.75124 9.99266 5.54439 9.94872 5.36564 9.86082C5.18688 9.77293 5.02856 9.65402 4.89066 9.50409C4.75277 9.35416 4.62764 9.18614 4.51528 9.00001C4.40292 8.81389 4.30332 8.62777 4.2165 8.44165C3.98667 8.8294 3.81302 9.23784 3.69556 9.66695C3.57809 10.0961 3.51936 10.5355 3.51936 10.9853ZM16.2671 13.9632V14.9559H14.3059V16.9412H13.3253V14.9559H11.3641V13.9632H13.3253V11.978H14.3059V13.9632H16.2671Z" fill="#C8553D"/>
</svg>
