<svg width="16" height="16" viewBox="0 0 16 16" fill="none" xmlns="http://www.w3.org/2000/svg">
<path fill-rule="evenodd" clip-rule="evenodd" d="M0.443999 0.446662C0.728286 0.160669 1.11386 0 1.51591 0H14.1899C14.5919 0 14.9775 0.160669 15.2618 0.446662C15.5461 0.732655 15.7058 1.12054 15.7058 1.525V14.275C15.7058 14.6795 15.5461 15.0673 15.2618 15.3533C14.9775 15.6393 14.5919 15.8 14.1899 15.8H1.51591C1.11386 15.8 0.728286 15.6393 0.443999 15.3533C0.159711 15.0673 0 14.6795 0 14.275V1.525C0 1.12054 0.159711 0.732655 0.443999 0.446662ZM1.51591 0.8C1.32477 0.8 1.14146 0.876384 1.00631 1.01235C0.871158 1.14831 0.795229 1.33272 0.795229 1.525V14.275C0.795229 14.4673 0.871157 14.6517 1.00631 14.7877C1.14146 14.9236 1.32477 15 1.51591 15H14.1899C14.381 15 14.5643 14.9236 14.6995 14.7877C14.8346 14.6517 14.9106 14.4673 14.9106 14.275V1.525C14.9106 1.33272 14.8346 1.14831 14.6995 1.01235C14.5643 0.876384 14.381 0.8 14.1899 0.8H1.51591Z" fill="#C8553D"/>
<path fill-rule="evenodd" clip-rule="evenodd" d="M7.85297 4.19551C6.24272 4.19551 4.85908 4.881 3.68557 6.3012C3.5452 6.47109 3.2945 6.49433 3.12563 6.35311C2.95676 6.21189 2.93366 5.9597 3.07403 5.78981C4.37941 4.21002 5.97787 3.39551 7.85297 3.39551C9.72806 3.39551 11.3265 4.21002 12.6319 5.78981C12.7723 5.9597 12.7492 6.21189 12.5803 6.35311C12.4114 6.49433 12.1607 6.47109 12.0204 6.3012C10.8469 4.881 9.46321 4.19551 7.85297 4.19551Z" fill="#C8553D"/>
<path d="M7.85291 10.5254C8.1495 10.5254 8.43394 10.4069 8.64366 10.1959C8.85338 9.98491 8.9712 9.69876 8.9712 9.40039C8.9712 9.10202 8.85338 8.81587 8.64366 8.6049C8.43394 8.39392 8.1495 8.27539 7.85291 8.27539C7.55632 8.27539 7.27188 8.39392 7.06216 8.6049C6.85244 8.81587 6.73462 9.10202 6.73462 9.40039C6.73462 9.69876 6.85244 9.98491 7.06216 10.1959C7.27188 10.4069 7.55632 10.5254 7.85291 10.5254Z" fill="#C8553D"/>
<path fill-rule="evenodd" clip-rule="evenodd" d="M5.75784 6.44971C5.93644 6.32117 6.1848 6.36262 6.31258 6.54229L8.17938 9.16729C8.30715 9.34696 8.26595 9.59681 8.08735 9.72535C7.90876 9.85389 7.6604 9.81244 7.53262 9.63277L5.66582 7.00777C5.53805 6.8281 5.57925 6.57825 5.75784 6.44971Z" fill="#C8553D"/>
</svg>
