<svg width="16" height="16" viewBox="0 0 16 16" fill="none" xmlns="http://www.w3.org/2000/svg">
<path fill-rule="evenodd" clip-rule="evenodd" d="M2.33542 0.321556C2.37259 0.134585 2.53577 0 2.72531 0H7.19848C7.34116 0 7.47291 0.0769144 7.5437 0.201544L9.03476 2.82654C9.13595 3.00469 9.08674 3.23097 8.92085 3.35034L5.95395 5.48525L7.35768 10.7096C8.30799 9.44376 9.87712 8.67435 11.613 8.85974C13.8809 9.10185 15.6785 11.0215 15.7927 13.31L15.7927 13.311C15.8211 13.911 15.74 14.4885 15.5646 15.026C15.4101 15.5024 14.9578 15.8 14.4823 15.8H3.38063C1.24796 15.8 -0.351458 13.8369 0.0667763 11.7332L0.45667 11.8116L0.0667763 11.7332L2.33542 0.321556ZM6.79492 11.681L5.13765 5.51304L4.27506 4.3953C4.14039 4.2208 4.17184 3.96952 4.34529 3.83404C4.51875 3.69857 4.76854 3.7302 4.9032 3.9047L5.57457 4.77466L8.16615 2.90982L6.96773 0.8H3.05128L0.846564 11.8901L0.457063 11.8117L0.846563 11.8901C0.526726 13.4989 1.74988 15 3.38063 15H14.4823C14.64 15 14.7689 14.9006 14.8087 14.7776L14.809 14.7765C14.9541 14.3317 15.0221 13.8519 14.9984 13.3496C14.9036 11.4533 13.4061 9.85565 11.529 9.65527L11.529 9.65526C9.55259 9.44418 7.8375 10.7195 7.3469 12.5065C7.28844 12.7194 7.06945 12.8444 6.85778 12.7856C6.64611 12.7268 6.52191 12.5065 6.58037 12.2935C6.63814 12.0831 6.71002 11.8786 6.79492 11.681Z" fill="#C8553D"/>
</svg>
